<svg xmlns="http://www.w3.org/2000/svg" xmlns:xlink="http://www.w3.org/1999/xlink" width="1000" height="1000" viewBox="0 0 1000 1000">
  <defs>
    <clipPath id="clip-path">
      <rect id="Rectangle_50" data-name="Rectangle 50" width="1000" height="1000" fill="#0065fc"/>
    </clipPath>
    <clipPath id="clip-money">
      <rect width="1000" height="1000"/>
    </clipPath>
  </defs>
  <g id="money" clip-path="url(#clip-money)">
    <g id="Groupe_de_masques_1" data-name="Groupe de masques 1" clip-path="url(#clip-path)">
      <path id="money-2" data-name="money" d="M970.547,85.092C909.939,59.671,849.284,50,788.66,50c-192.45-.016-384.885,97.4-577.335,97.4-48.265,0-96.5-6.125-144.763-21.437a53.424,53.424,0,0,0-16.172-2.531C23.5,123.436,0,144.248,0,173.138V668.849c0,19.734,11.3,38.437,29.437,46.031,60.608,25.437,121.264,35.109,181.888,35.109,192.45,0,384.9-97.42,577.35-97.42,48.265,0,96.5,6.125,144.763,21.437a53.423,53.423,0,0,0,16.172,2.531c26.89,0,50.39-20.812,50.39-49.7v-495.7c-.016-19.75-11.312-38.437-29.453-46.046ZM75,206.591c31.437,7.875,64.249,11.828,98,13.953-9.187,45.921-49.562,80.53-98,80.53ZM75,651.9V577.241c53.7,0,97.155,42.609,99.545,95.936A377.461,377.461,0,0,1,75,651.9Zm424.993-101.9c-69.046,0-125-67.171-125-150,0-82.842,55.968-150,125-150s125,67.155,125,150C624.99,482.852,569.007,549.991,499.992,549.991ZM924.986,593.4c-27.375-6.859-55.8-10.7-84.874-13.187a99.788,99.788,0,0,1,84.874-77Zm0-368.916a99.8,99.8,0,0,1-87.2-96.17c30.531,3.391,59.515,9.734,87.2,19.781Z" transform="translate(0 100.006)" fill="#0065fc"/>
    </g>
  </g>
</svg>
